Coordinates
version=1
nRows=5
nColumns=40
inDegrees=yes

Units are S.I. units (second, meters, Newtons, ...)
Angles are in degrees.

endheader
time	pelvis_tilt	pelvis_list	pelvis_rotation	pelvis_tx	pelvis_ty	pelvis_tz	hip_flexion_r	hip_adduction_r	hip_rotation_r	knee_angle_r	knee_angle_r_beta	ankle_angle_r	subtalar_angle_r	mtp_angle_r	hip_flexion_l	hip_adduction_l	hip_rotation_l	knee_angle_l	knee_angle_l_beta	ankle_angle_l	subtalar_angle_l	mtp_angle_l	lumbar_extension	lumbar_bending	lumbar_rotation	arm_flex_r	arm_add_r	arm_rot_r	elbow_flex_r	pro_sup_r	wrist_flex_r	wrist_dev_r	arm_flex_l	arm_add_l	arm_rot_l	elbow_flex_l	pro_sup_l	wrist_flex_l	wrist_dev_l
      0.00000000	      0.39769270	     -6.32837613	     -0.38678084	     -1.17948075	      0.86581517	      0.96188631	     28.20993576	      2.65879862	    -19.86897878	    -18.78535637	     -0.32786632	     -2.83203356	      5.67578997	     -1.91053000	    -17.45823076	      1.97406889	      6.99343301	    -16.36000049	     -0.28553587	      9.77686031	    -12.27376639	     -6.14751151	     -7.30038640	      8.81095400	     -5.95505388	     -9.06104812	     -6.32579741	     12.55797358	      5.34741491	     89.95437384	      0.00000000	      0.00000000	     15.95424557	     10.92473730	    -13.41482024	     46.34014387	     89.95437384	      0.00000000	      0.00000000
      0.01000000	      0.35710456	     -6.37575203	     -0.03728289	     -1.16453633	      0.86491477	      0.96267252	     28.12341146	      2.87547203	    -18.73055895	    -20.25865811	     -0.35358029	     -3.48536322	      5.29082336	     -1.83361508	    -17.70506121	      2.24859026	      6.25241435	    -17.58477008	     -0.30691214	      8.95245321	    -11.61718350	     -5.98486327	     -6.93573823	      8.95605142	     -6.02872003	     -9.62510987	     -6.45723001	     12.59367350	      5.64114547	     89.95437384	      0.00000000	      0.00000000	     15.62049910	     10.82898095	    -13.25799818	     47.27646399	     89.95437384	      0.00000000	      0.00000000
      0.02000000	      0.29052234	     -6.37691778	      0.30352397	     -1.14965629	      0.86434637	      0.96355225	     28.17633896	      2.95199358	    -18.07550778	    -21.40677690	     -0.37361874	     -7.55761470	      4.10426848	     -1.17757061	    -17.73564743	      2.51542224	      5.78484782	    -18.98131474	     -0.33128644	      7.55393497	    -11.06308281	     -5.97635054	     -6.56212386	      9.00120549	     -6.49614367	     -9.62202130	     -6.47908207	     13.03045624	      5.23465710	     89.95437384	      0.00000000	      0.00000000	     14.76447933	     11.02319935	    -12.81320067	     48.83705125	     89.95437384	      0.00000000	      0.00000000
      0.03000000	      0.23072379	     -6.59130185	      0.52279991	     -1.13492237	      0.86423803	      0.96461750	     28.32051889	      3.34838997	    -16.60991753	    -22.70428865	     -0.39626459	     -8.22582177	      3.92161611	     -1.10420308	    -17.63950168	      2.92523036	      5.06813383	    -20.62782510	     -0.36002347	      6.31980335	    -10.33262006	     -5.75264212	     -6.25681336	      9.29142932	     -6.44054109	    -10.00127639	     -6.65044716	     13.05619736	      5.69490466	     89.95437384	      0.00000000	      0.00000000	     14.32521165	     10.84527011	    -12.56923586	     49.58257458	     89.95437384	      0.00000000	      0.00000000
      0.04000000	     -0.56196029	     -7.29405254	      0.47660586	     -1.12057961	      0.86339461	      0.96696082	     29.23241992	      4.60843816	    -14.78686307	    -23.88834385	     -0.41693025	     -8.77228984	     -1.98516745	     -0.36303282	    -15.92159595	      4.41023530	      6.79865349	    -23.76535046	     -0.41478361	      3.75063011	    -12.12156979	     -6.77101247	     -5.14896494	     10.03335177	     -6.56024099	     -9.96361480	     -6.79803788	     14.17735817	      5.46785211	     89.95437384	      0.00000000	      0.00000000	     13.37329549	     10.78119298	    -11.73290490	     50.55636126	     89.95437384	      0.00000000	      0.00000000
